{
  "accessors": [
    {
      "bufferView": 2,
      "componentType": 5126,
      "count": 65532,
      "max": [
        8.6602087020874023,
        36.865646362304688,
        29.304683685302734
      ],
      "min": [
        -2.6676130294799805,
        -4.8889651298522949,
        -12.157663345336914
      ],
      "type": "VEC3"
    },
    {
      "bufferView": 2,
      "byteOffset": 786384,
      "componentType": 5126,
      "count": 65532,
      "max": [
        1,
        0.99998718500137329,
        0.99997860193252563
      ],
      "min": [
        -0.99965077638626099,
        -0.99995517730712891,
        -0.999930739402771
      ],
      "type": "VEC3"
    },
    {
      "bufferView": 3,
      "componentType": 5126,
      "count": 65532,
      "max": [
        0.99991631507873535,
        0.9999573826789856,
        0.99992579221725464,
        1
      ],
      "min": [
        -0.99999362230300903,
        -0.9999966025352478,
        -0.99999678134918213,
        -1
      ],
      "type": "VEC4"
    },
    {
      "bufferView": 3,
      "byteOffset": 1048512,
      "componentType": 5126,
      "count": 65532,
      "max": [
        0.96470588445663452,
        0.87450981140136719,
        0.7607843279838562,
        1
      ],
      "min": [
        0.066666670143604279,
        0.027450980618596077,
        0,
        1
      ],
      "type": "VEC4"
    },
    {
      "bufferView": 1,
      "componentType": 5126,
      "count": 65532,
      "max": [
        0.99947601556777954,
        0.99964600801467896
      ],
      "min": [
        0,
        0
      ],
      "type": "VEC2"
    },
    {
      "bufferView": 0,
      "componentType": 5125,
      "count": 264447,
      "max": [
        65531
      ],
      "min": [
        0
      ],
      "type": "SCALAR"
    },
    {
      "bufferView": 2,
      "byteOffset": 1572768,
      "componentType": 5126,
      "count": 65532,
      "max": [
        8.5631990432739258,
        32.0284423828125,
        28.415487289428711
      ],
      "min": [
        4.614020824432373,
        6.5016140937805176,
        -11.324234008789062
      ],
      "type": "VEC3"
    },
    {
      "bufferView": 2,
      "byteOffset": 2359152,
      "componentType": 5126,
      "count": 65532,
      "max": [
        1,
        0.99993842840194702,
        0.99998903274536133
      ],
      "min": [
        -0.9996722936630249,
        -0.99999040365219116,
        -0.99954855442047119
      ],
      "type": "VEC3"
    },
    {
      "bufferView": 3,
      "byteOffset": 2097024,
      "componentType": 5126,
      "count": 65532,
      "max": [
        0.99999982118606567,
        0.99999505281448364,
        0.99999523162841797,
        1
      ],
      "min": [
        -0.99998295307159424,
        -0.99997240304946899,
        -0.99997836351394653,
        -1
      ],
      "type": "VEC4"
    },
    {
      "bufferView": 3,
      "byteOffset": 3145536,
      "componentType": 5126,
      "count": 65532,
      "max": [
        0.89411765336990356,
        0.85098040103912354,
        0.80392158031463623,
        1
      ],
      "min": [
        0.062745101749897003,
        0.023529412224888802,
        0,
        1
      ],
      "type": "VEC4"
    },
    {
      "bufferView": 1,
      "byteOffset": 524256,
      "componentType": 5126,
      "count": 65532,
      "max": [
        0.99728697538375854,
        1
      ],
      "min": [
        0.0057330001145601273,
        0
      ],
      "type": "VEC2"
    },
    {
      "bufferView": 0,
      "byteOffset": 1057788,
      "componentType": 5125,
      "count": 320223,
      "max": [
        65531
      ],
      "min": [
        0
      ],
      "type": "SCALAR"
    },
    {
      "bufferView": 2,
      "byteOffset": 3145536,
      "componentType": 5126,
      "count": 65532,
      "max": [
        8.1829538345336914,
        17.3927001953125,
        28.803316116333008
      ],
      "min": [
        -3.1480989456176758,
        -2.3741660118103027,
        -10.412290573120117
      ],
      "type": "VEC3"
    },
    {
      "bufferView": 2,
      "byteOffset": 3931920,
      "componentType": 5126,
      "count": 65532,
      "max": [
        0.99999970197677612,
        0.99996054172515869,
        0.99999731779098511
      ],
      "min": [
        -0.9999929666519165,
        -0.99997138977050781,
        -0.999927818775177
      ],
      "type": "VEC3"
    },
    {
      "bufferView": 3,
      "byteOffset": 4194048,
      "componentType": 5126,
      "count": 65532,
      "max": [
        0.99990713596343994,
        0.99999964237213135,
        0.99995583295822144,
        1
      ],
      "min": [
        -0.99984419345855713,
        -0.99988538026809692,
        -0.9999963641166687,
        -1
      ],
      "type": "VEC4"
    },
    {
      "bufferView": 3,
      "byteOffset": 5242560,
      "componentType": 5126,
      "count": 65532,
      "max": [
        0.90588235855102539,
        0.83921569585800171,
        0.73725491762161255,
        1
      ],
      "min": [
        0.062745101749897003,
        0.035294119268655777,
        0.0039215688593685627,
        1
      ],
      "type": "VEC4"
    },
    {
      "bufferView": 1,
      "byteOffset": 1048512,
      "componentType": 5126,
      "count": 65532,
      "max": [
        0.99690699577331543,
        0.99988698959350586
      ],
      "min": [
        0.00018000000272877514,
        0.00015900000289548188
      ],
      "type": "VEC2"
    },
    {
      "bufferView": 0,
      "byteOffset": 2338680,
      "componentType": 5125,
      "count": 286233,
      "max": [
        65531
      ],
      "min": [
        0
      ],
      "type": "SCALAR"
    },
    {
      "bufferView": 2,
      "byteOffset": 4718304,
      "componentType": 5126,
      "count": 65532,
      "max": [
        7.8034710884094238,
        7.5177121162414551,
        29.248071670532227
      ],
      "min": [
        -3.1518599987030029,
        -0.68022698163986206,
        -11.880938529968262
      ],
      "type": "VEC3"
    },
    {
      "bufferView": 2,
      "byteOffset": 5504688,
      "componentType": 5126,
      "count": 65532,
      "max": [
        0.99999898672103882,
        0.99997460842132568,
        0.99999880790710449
      ],
      "min": [
        -0.99999767541885376,
        -0.9999992847442627,
        -0.999836266040802
      ],
      "type": "VEC3"
    },
    {
      "bufferView": 3,
      "byteOffset": 6291072,
      "componentType": 5126,
      "count": 65532,
      "max": [
        0.9999392032623291,
        0.99999910593032837,
        0.99999922513961792,
        1
      ],
      "min": [
        -0.9999920129776001,
        -0.99990385770797729,
        -0.99995797872543335,
        -1
      ],
      "type": "VEC4"
    },
    {
      "bufferView": 3,
      "byteOffset": 7339584,
      "componentType": 5126,
      "count": 65532,
      "max": [
        0.93725490570068359,
        0.84705883264541626,
        0.80784314870834351,
        1
      ],
      "min": [
        0.062745101749897003,
        0.047058824449777603,
        0.011764706112444401,
        1
      ],
      "type": "VEC4"
    },
    {
      "bufferView": 1,
      "byteOffset": 1572768,
      "componentType": 5126,
      "count": 65532,
      "max": [
        0.99826598167419434,
        0.99956697225570679
      ],
      "min": [
        0.0014680000022053719,
        0.00026900001103058457
      ],
      "type": "VEC2"
    },
    {
      "bufferView": 0,
      "byteOffset": 3483612,
      "componentType": 5125,
      "count": 261069,
      "max": [
        65531
      ],
      "min": [
        0
      ],
      "type": "SCALAR"
    },
    {
      "bufferView": 2,
      "byteOffset": 6291072,
      "componentType": 5126,
      "count": 65532,
      "max": [
        7.9211640357971191,
        6.3157029151916504,
        29.427148818969727
      ],
      "min": [
        -2.5416450500488281,
        -4.9336872100830078,
        -11.426519393920898
      ],
      "type": "VEC3"
    },
    {
      "bufferView": 2,
      "byteOffset": 7077456,
      "componentType": 5126,
      "count": 65532,
      "max": [
        0.99999886751174927,
        0.99995672702789307,
        0.99999642372131348
      ],
      "min": [
        -0.99999761581420898,
        -0.99999916553497314,
        -0.99980109930038452
      ],
      "type": "VEC3"
    },
    {
      "bufferView": 3,
      "byteOffset": 8388096,
      "componentType": 5126,
      "count": 65532,
      "max": [
        0.99994176626205444,
        0.99999946355819702,
        0.99997860193252563,
        1
      ],
      "min": [
        -0.99999922513961792,
        -0.99992620944976807,
        -0.99998772144317627,
        -1
      ],
      "type": "VEC4"
    },
    {
      "bufferView": 3,
      "byteOffset": 9436608,
      "componentType": 5126,
      "count": 65532,
      "max": [
        0.98823529481887817,
        0.9529411792755127,
        0.87450981140136719,
        1
      ],
      "min": [
        0.039215687662363052,
        0.023529412224888802,
        0,
        1
      ],
      "type": "VEC4"
    },
    {
      "bufferView": 1,
      "byteOffset": 2097024,
      "componentType": 5126,
      "count": 65532,
      "max": [
        0.99764901399612427,
        1
      ],
      "min": [
        4.5000000682193786e-05,
        0
      ],
      "type": "VEC2"
    },
    {
      "bufferView": 0,
      "byteOffset": 4527888,
      "componentType": 5125,
      "count": 262677,
      "max": [
        65531
      ],
      "min": [
        0
      ],
      "type": "SCALAR"
    },
    {
      "bufferView": 2,
      "byteOffset": 7863840,
      "componentType": 5126,
      "count": 28846,
      "max": [
        7.7567639350891113,
        1.5431770086288452,
        29.435691833496094
      ],
      "min": [
        -0.78783100843429565,
        -4.8910560607910156,
        -9.9540920257568359
      ],
      "type": "VEC3"
    },
    {
      "bufferView": 2,
      "byteOffset": 8209992,
      "componentType": 5126,
      "count": 28846,
      "max": [
        0.99998581409454346,
        0.99931222200393677,
        0.99998420476913452
      ],
      "min": [
        -0.99999761581420898,
        -0.99999916553497314,
        -0.99989616870880127
      ],
      "type": "VEC3"
    },
    {
      "bufferView": 3,
      "byteOffset": 10485120,
      "componentType": 5126,
      "count": 28846,
      "max": [
        0.99990940093994141,
        0.99999892711639404,
        0.99994575977325439,
        1
      ],
      "min": [
        -0.99999922513961792,
        -0.99967265129089355,
        -0.99994397163391113,
        -1
      ],
      "type": "VEC4"
    },
    {
      "bufferView": 3,
      "byteOffset": 10946656,
      "componentType": 5126,
      "count": 28846,
      "max": [
        0.99215686321258545,
        0.9529411792755127,
        0.87450981140136719,
        1
      ],
      "min": [
        0.027450980618596077,
        0.023529412224888802,
        0.0078431377187371254,
        1
      ],
      "type": "VEC4"
    },
    {
      "bufferView": 1,
      "byteOffset": 2621280,
      "componentType": 5126,
      "count": 28846,
      "max": [
        0.9982370138168335,
        1
      ],
      "min": [
        8.0999998317565769e-05,
        4.6000001020729542e-05
      ],
      "type": "VEC2"
    },
    {
      "bufferView": 0,
      "byteOffset": 5578596,
      "componentType": 5125,
      "count": 105351,
      "max": [
        28845
      ],
      "min": [
        0
      ],
      "type": "SCALAR"
    }
  ],
  "asset": {
    "extras": {
      "author": "danielpett (https://sketchfab.com/danielpett)",
      "license": "CC-BY-4.0 (http://creativecommons.org/licenses/by/4.0/)",
      "source": "https://sketchfab.com/3d-models/most-of-a-lamassu-707e412b74e040e3a3c607fa9f045387",
      "title": "Most of a Lamassu"
    },
    "generator": "Sketchfab-6.93.1",
    "version": "2.0"
  },
  "bufferViews": [
    {
      "buffer": 0,
      "byteLength": 6000000,
      "byteOffset": 0,
      "name": "floatBufferViews",
      "target": 34963
    },
    {
      "buffer": 0,
      "byteLength": 2852048,
      "byteOffset": 6000000,
      "byteStride": 8,
      "name": "floatBufferViews",
      "target": 34962
    },
    {
      "buffer": 0,
      "byteLength": 8556144,
      "byteOffset": 8852048,
      "byteStride": 12,
      "name": "floatBufferViews",
      "target": 34962
    },
    {
      "buffer": 0,
      "byteLength": 11408192,
      "byteOffset": 17408192,
      "byteStride": 16,
      "name": "floatBufferViews",
      "target": 34962
    }
  ],
  "buffers": [
    {
      "byteLength": 28816384,
      "uri": "scene.bin"
    }
  ],
  "images": [
    {
      "uri": "textures/lamassu.1001_baseColor.jpeg"
    },
    {
      "uri": "textures/lamassu.1001_metallicRoughness.png"
    }
  ],
  "materials": [
    {
      "doubleSided": true,
      "emissiveFactor": [
        0,
        0,
        0
      ],
      "name": "lamassu.1001",
      "pbrMetallicRoughness": {
        "baseColorFactor": [
          1,
          1,
          1,
          1
        ],
        "baseColorTexture": {
          "index": 0,
          "texCoord": 0
        },
        "metallicFactor": 0,
        "metallicRoughnessTexture": {
          "index": 1,
          "texCoord": 0
        },
        "roughnessFactor": 1
      }
    }
  ],
  "meshes": [
    {
      "primitives": [
        {
          "attributes": {
            "COLOR_0": 3,
            "NORMAL": 1,
            "POSITION": 0,
            "TANGENT": 2,
            "TEXCOORD_0": 4
          },
          "indices": 5,
          "material": 0,
          "mode": 4
        }
      ]
    },
    {
      "primitives": [
        {
          "attributes": {
            "COLOR_0": 9,
            "NORMAL": 7,
            "POSITION": 6,
            "TANGENT": 8,
            "TEXCOORD_0": 10
          },
          "indices": 11,
          "material": 0,
          "mode": 4
        }
      ]
    },
    {
      "primitives": [
        {
          "attributes": {
            "COLOR_0": 15,
            "NORMAL": 13,
            "POSITION": 12,
            "TANGENT": 14,
            "TEXCOORD_0": 16
          },
          "indices": 17,
          "material": 0,
          "mode": 4
        }
      ]
    },
    {
      "primitives": [
        {
          "attributes": {
            "COLOR_0": 21,
            "NORMAL": 19,
            "POSITION": 18,
            "TANGENT": 20,
            "TEXCOORD_0": 22
          },
          "indices": 23,
          "material": 0,
          "mode": 4
        }
      ]
    },
    {
      "primitives": [
        {
          "attributes": {
            "COLOR_0": 27,
            "NORMAL": 25,
            "POSITION": 24,
            "TANGENT": 26,
            "TEXCOORD_0": 28
          },
          "indices": 29,
          "material": 0,
          "mode": 4
        }
      ]
    },
    {
      "primitives": [
        {
          "attributes": {
            "COLOR_0": 33,
            "NORMAL": 31,
            "POSITION": 30,
            "TANGENT": 32,
            "TEXCOORD_0": 34
          },
          "indices": 35,
          "material": 0,
          "mode": 4
        }
      ]
    }
  ],
  "nodes": [
    {
      "children": [
        1
      ],
      "name": "RootNode (gltf orientation matrix)",
      "rotation": [
        -0.70710678118654746,
        -0,
        -0,
        0.70710678118654757
      ]
    },
    {
      "children": [
        2
      ],
      "matrix": [
        0.82562083005905151,
        -0.56378942728042603,
        0.022174576297402382,
        0,
        0.56422537565231323,
        0.82498300075531006,
        -0.032447658479213715,
        0,
        -1.7347234759768071e-18,
        0.039300922304391861,
        0.99922740459442139,
        0,
        -8.5281009674072266,
        4.0075616836547852,
        0.46365806460380554,
        1
      ],
      "name": "RootNode (model correction matrix)"
    },
    {
      "children": [
        3,
        4,
        5,
        6,
        7,
        8
      ],
      "name": "lamassu.obj.cleaner.materialmerger.gles"
    },
    {
      "mesh": 0,
      "name": ""
    },
    {
      "mesh": 1,
      "name": ""
    },
    {
      "mesh": 2,
      "name": ""
    },
    {
      "mesh": 3,
      "name": ""
    },
    {
      "mesh": 4,
      "name": ""
    },
    {
      "mesh": 5,
      "name": ""
    }
  ],
  "samplers": [
    {
      "magFilter": 9729,
      "minFilter": 9987,
      "wrapS": 10497,
      "wrapT": 10497
    }
  ],
  "scene": 0,
  "scenes": [
    {
      "name": "OSG_Scene",
      "nodes": [
        0
      ]
    }
  ],
  "textures": [
    {
      "sampler": 0,
      "source": 0
    },
    {
      "sampler": 0,
      "source": 1
    }
  ]
}

